<svg xmlns="http://www.w3.org/2000/svg" width="112.53" height="26.195" viewBox="0 0 112.53 26.195"><defs><style>.a{fill:#666;}</style></defs><path class="a" d="M180.537,5.545a2.31,2.31,0,0,0,1.178-2.082c0-3.128-2-3.274-3.628-3.274h-5.8V11.5L166.361,0l-5.069,9.865H155V.188H144.3v3.7a5.509,5.509,0,0,0-5.437-3.7H133.5V3.682a6.407,6.407,0,0,0-12.009,1.151A7.141,7.141,0,0,1,117.4,9.8a8.568,8.568,0,0,1-2.135.272c-2.839,0-4.469-1.465-4.469-3.913s1.64-3.913,4.417-3.913A6.727,6.727,0,0,1,119.3,3.525V1.088A7.634,7.634,0,0,0,115.169,0c-3.986,0-6.468,2.207-6.468,6.162s2.482,6.162,6.468,6.162a7.97,7.97,0,0,0,3.5-.743c.021,0,.042-.01.063-.01a8.107,8.107,0,0,0,3.1-2.877V8.641a6.467,6.467,0,0,0,11.684-.021v3.463h5.363a5.5,5.5,0,0,0,5.437-3.693v3.693h18.045l.978-2.019h6.1l1,2.019h8.381c1.735,0,3.712-.638,3.712-3.6A2.745,2.745,0,0,0,180.537,5.545Zm-52.875,4.509c-2.429,0-4.2-1.5-4.2-3.892,0-2.437,1.767-3.892,4.2-3.892s4.2,1.444,4.2,3.892C131.857,8.557,130.091,10.053,127.662,10.053Zm10.968-.188h-3.186V2.417h3.186c1.872,0,3.912.826,3.912,3.724S140.512,9.865,138.63,9.865Zm7.614.188V7.02h5.826V5.147h-5.826v-2.9h6.8v7.794h-6.8Zm18.119-2.092,2-4.049,2,4.049Zm9.864-5.712h3.986a1.252,1.252,0,0,1,1.43,1.37,1.262,1.262,0,0,1-1.43,1.4h-3.986Zm4.543,7.773h-4.543v-3.1h4.543c.926,0,1.641.356,1.641,1.569S179.7,10.022,178.77,10.022Z" transform="translate(-70.005)"/><path class="a" d="M112.133,51.5a5.037,5.037,0,0,1-4.259-1.946l1.252-1.245a3.651,3.651,0,0,0,2.881,1.391c1.377,0,2.566-.7,2.566-2.176a2.245,2.245,0,0,0-2.461-2,3.266,3.266,0,0,0-1.483.324L109.84,45l3.5-3.871h-5.111V39.29h8.486v.67L113.2,43.851c2.461.345,3.733,1.914,3.733,3.672C116.929,49.814,114.8,51.5,112.133,51.5Z" transform="translate(-69.472 -25.303)"/><path class="a" d="M142.869,44.925c0,3.4-1.935,6.214-4.943,6.214s-4.943-2.814-4.943-6.214,1.935-6.193,4.943-6.193S142.869,41.514,142.869,44.925Zm-4.943-4.341c-1.357,0-2.482,1.37-2.482,4.341s1.125,4.362,2.482,4.362c1.377,0,2.482-1.391,2.482-4.362S139.3,40.583,137.927,40.583Z" transform="translate(-85.643 -24.943)"/><path class="a" d="M163.12,51.5a5.037,5.037,0,0,1-4.259-1.946l1.251-1.245a3.651,3.651,0,0,0,2.881,1.391c1.378,0,2.566-.7,2.566-2.176a2.245,2.245,0,0,0-2.461-2,3.263,3.263,0,0,0-1.483.324L160.827,45l3.5-3.871h-5.111V39.29h8.487v.67l-3.523,3.892c2.461.345,3.733,1.914,3.733,3.672C167.915,49.814,165.791,51.5,163.12,51.5Z" transform="translate(-102.308 -25.303)"/><path class="a" d="M28.586,18.2a.9.9,0,0,1-1.262,0l-4.364-4.341a.9.9,0,0,0-1.262,0l-2.8,2.783a.887.887,0,0,0,0,1.255l5,4.969,3.439,3.421a.9.9,0,0,0,1.262,0l3.428-3.41,8.139-8.1,3.47-3.452a.887.887,0,0,0,0-1.255L35.2,1.677a.9.9,0,0,0-1.262,0L31.1,4.5a.887.887,0,0,0,0,1.255L35.463,10.1a.887.887,0,0,1,0,1.255Z" transform="translate(-12.004 -0.913)"/><path class="a" d="M.26,9.2a.887.887,0,0,0,0,1.255l2.808,2.793a.9.9,0,0,0,1.262,0L9.262,8.342a.9.9,0,0,1,1.262,0l4.722,4.687a.9.9,0,0,0,1.262,0l2.787-2.772a.887.887,0,0,0,0-1.255L13.942,3.687,10.513.266a.9.9,0,0,0-1.262,0l-3.418,3.4Z" transform="translate(0 -0.005)"/></svg>