<svg xmlns="http://www.w3.org/2000/svg" width="128.151" height="40.5" viewBox="0 0 128.151 40.5"><defs><style>.a{fill:#666;}.b{fill:none;}</style></defs><g transform="translate(11.113 10.267)"><path class="a" d="M101.592,252.944a4.513,4.513,0,0,1-3.286,7.639,4.29,4.29,0,0,1-3.089-1.236L93.551,261l-1.666-1.676a4.438,4.438,0,0,1-3.146,1.254,4.5,4.5,0,0,1-4.521-4.54,4.408,4.408,0,0,1,1.236-3.1q-.348-.357-1.63-1.639l1.647-1.648a4.316,4.316,0,0,1-1.235-3.06,4.417,4.417,0,0,1,1.3-3.221,4.327,4.327,0,0,1,3.2-1.32,4.376,4.376,0,0,1,3.146,1.264q.372-.356,1.666-1.648.552.524,1.647,1.63a4.406,4.406,0,0,1,3.109-1.246,4.525,4.525,0,0,1,3.314,7.6l1.62,1.63-1.649,1.658Zm-12.854-9.138a2.806,2.806,0,0,0-2.809,2.818,2.567,2.567,0,0,0,.721,1.834l4.016-3.894a2.756,2.756,0,0,0-1.928-.758m-2.051,10.355A2.659,2.659,0,0,0,86,256,2.8,2.8,0,0,0,86.8,258a2.568,2.568,0,0,0,1.938.854,2.5,2.5,0,0,0,1.873-.777Zm13.631-3.578a3.981,3.981,0,0,1-2.013.5,4.357,4.357,0,0,1-3.187-1.306A4.309,4.309,0,0,1,93.8,246.6a4.21,4.21,0,0,1,.468-1.938l-.72-.8q-.131.14-.74.767a4.41,4.41,0,0,1,.45,1.967,4.306,4.306,0,0,1-1.315,3.183,4.386,4.386,0,0,1-3.207,1.3,4.759,4.759,0,0,1-1.938-.431l-.637.636.647.655a4.925,4.925,0,0,1,1.928-.439,4.506,4.506,0,0,1,4.54,4.54,4.573,4.573,0,0,1-.421,1.939l.7.738.675-.7a4.711,4.711,0,0,1-.44-1.976,4.39,4.39,0,0,1,1.316-3.21,4.323,4.323,0,0,1,3.2-1.33,4.4,4.4,0,0,1,2,.487l.712-.7Zm-8.847-4.614q-.963.983-3.351,3.351a3.906,3.906,0,0,0,.617.055,2.81,2.81,0,0,0,2.008-.786,2.6,2.6,0,0,0,.829-1.966,2.259,2.259,0,0,0-.1-.655m-2.733,7.292a4.934,4.934,0,0,0-.553.029l3.258,3.276a2.545,2.545,0,0,0,.067-.562,2.636,2.636,0,0,0-.8-1.957,2.708,2.708,0,0,0-1.97-.787m6.872-7.34a2.412,2.412,0,0,0-.093.7,2.618,2.618,0,0,0,.819,1.956,2.725,2.725,0,0,0,1.971.8,3.8,3.8,0,0,0,.7-.055Zm2.7,7.34A2.727,2.727,0,0,0,95.554,256a3.009,3.009,0,0,0,.066.666l3.333-3.362a4.557,4.557,0,0,0-.646-.047m2.05.919q-1.1,1.153-3.886,3.95a2.706,2.706,0,0,0,3.8-.12,2.8,2.8,0,0,0,.806-2.005,2.619,2.619,0,0,0-.721-1.825m-2.05-10.374a2.5,2.5,0,0,0-1.825.74l3.913,3.894a2.565,2.565,0,0,0,.721-1.816,2.79,2.79,0,0,0-2.809-2.819" transform="translate(-83.824 -241.672)"/><path class="a" d="M183.233,245.82h7.592a5.55,5.55,0,1,1,.007,11.074h-3.966v6.2h-3.633Zm3.633,8.127h2.77a4.12,4.12,0,0,0,2.282-.507,2.328,2.328,0,0,0,.908-2.085,2.284,2.284,0,0,0-.954-2.113,4.284,4.284,0,0,0-2.236-.46h-2.77Z" transform="translate(-159.536 -244.831)"/><path class="a" d="M242.555,271.418q0,3.126,3.033,3.125a3.34,3.34,0,0,0,1.592-.418,2.045,2.045,0,0,0,1.078-1.176h3.088a5.683,5.683,0,0,1-5.879,4.174,6.187,6.187,0,0,1-4.667-1.8,6.508,6.508,0,0,1-1.747-4.726,6.768,6.768,0,0,1,1.676-4.734,6.092,6.092,0,0,1,4.738-1.993,5.4,5.4,0,0,1,4.624,2.249,8.743,8.743,0,0,1,1.47,5.3h-9.006Zm5.5-2.166q-.487-2.646-2.678-2.645a2.716,2.716,0,0,0-2.21.972,2.558,2.558,0,0,0-.608,1.673Z" transform="translate(-202.05 -258.575)"/><path class="a" d="M298.231,264.239h3.164v2.125h.037a4.918,4.918,0,0,1,1.7-1.893,5.659,5.659,0,0,1,2.519-.476,2.248,2.248,0,0,1,.7.121v3.165a4.932,4.932,0,0,0-1.16-.113q-3.632,0-3.635,4.158v5.607h-3.331V264.239Z" transform="translate(-247.121 -258.674)"/><path class="a" d="M350.265,263.094c-.162-.019-.581-.027-1.251-.027s-1.6.006-2.781.019l-3.876-5.786-1.085,1.075v4.711h-3.251V245.813h3.251v9l4.282-4.474h4.028l-4.729,4.738Z" transform="translate(-277.426 -244.826)"/><path class="a" d="M392.665,246.242a1.875,1.875,0,1,1,.551,1.345,1.836,1.836,0,0,1-.551-1.345m.142,15.724h3.444V249.219h-3.444Z" transform="translate(-319.044 -243.705)"/><path class="a" d="M415.024,264.194h3.229v2.068h.085a4.534,4.534,0,0,1,1.591-1.7,4.179,4.179,0,0,1,2.033-.564q2.711,0,3.781,1.414a6.5,6.5,0,0,1,.908,3.888v7.636h-3.4v-6.995a4.646,4.646,0,0,0-.356-2.059,2.034,2.034,0,0,0-2.011-1A2.135,2.135,0,0,0,418.842,268a5.188,5.188,0,0,0-.439,2.435v6.5h-3.379V264.194Z" transform="translate(-336.073 -258.676)"/><path class="a" d="M472.95,273.36a1.961,1.961,0,0,0,.917,1.583,2.918,2.918,0,0,0,1.8.513q2.371,0,2.368-1.589,0-.841-1.909-1.411-.629-.187-2.032-.5a12.933,12.933,0,0,1-2.021-.571,2.888,2.888,0,0,1-1.986-2.741q0-3.977,5.421-3.975,5.514,0,5.513,3.932h-3.154q0-1.665-2.445-1.667-1.834,0-1.834,1.15,0,1,1.937,1.441c.967.205,1.63.343,1.985.412a9.366,9.366,0,0,1,1.854.59,2.988,2.988,0,0,1,1.956,2.871,3.762,3.762,0,0,1-1.759,3.432,7.281,7.281,0,0,1-3.9.906,7.667,7.667,0,0,1-4.008-.915,3.762,3.762,0,0,1-1.834-3.453Z" transform="translate(-377.802 -259.182)"/><path class="a" d="M524.715,264.8a2.009,2.009,0,0,1,.958.252,1.793,1.793,0,0,1,.73.721,1.991,1.991,0,0,1,.26.978,1.959,1.959,0,0,1-.257.969,1.8,1.8,0,0,1-.722.722,1.956,1.956,0,0,1-1.939,0,1.819,1.819,0,0,1-.722-.722,1.951,1.951,0,0,1,0-1.947,1.783,1.783,0,0,1,.731-.721,1.994,1.994,0,0,1,.958-.252m0,.32a1.655,1.655,0,0,0-.8.211,1.522,1.522,0,0,0-.612.6,1.65,1.65,0,0,0-.218.817,1.627,1.627,0,0,0,.215.809,1.528,1.528,0,0,0,.605.6,1.62,1.62,0,0,0,1.62,0,1.537,1.537,0,0,0,.6-.6,1.635,1.635,0,0,0-.006-1.626,1.494,1.494,0,0,0-.609-.6,1.663,1.663,0,0,0-.8-.211m-.855,2.712v-2.1h.72a1.728,1.728,0,0,1,.533.059.508.508,0,0,1,.263.2.546.546,0,0,1,.1.309.558.558,0,0,1-.164.4.644.644,0,0,1-.436.192.577.577,0,0,1,.179.112,2.427,2.427,0,0,1,.309.415l.257.411h-.412l-.187-.331a1.715,1.715,0,0,0-.353-.488.448.448,0,0,0-.273-.072h-.2v.891h-.335Zm.335-1.181h.414a.674.674,0,0,0,.407-.088.294.294,0,0,0,.108-.236.287.287,0,0,0-.052-.169.319.319,0,0,0-.145-.111,1.106,1.106,0,0,0-.343-.037H524.2Z" transform="translate(-418.13 -259.287)"/></g><rect class="b" width="128.151" height="40.5" transform="translate(0 0)"/></svg>