<svg xmlns="http://www.w3.org/2000/svg" width="88.948" height="19.991" viewBox="0 0 88.948 19.991"><defs><style>.a{fill:#666;}</style></defs><path class="a" d="M9.687,6.964A3.754,3.754,0,0,0,7.872,6.53,4.564,4.564,0,0,0,4.062,8.949V6.872H0V21.225H4.062V14.311a3.24,3.24,0,0,1,2.681-3.548,8.568,8.568,0,0,1,2.944-3.8" transform="translate(0 -1.613)"/><path class="a" d="M21.067,15.055H10.8C10.969,17.04,12.35,18,14.427,18a5.043,5.043,0,0,0,3.982-1.734L21,18.774a9.207,9.207,0,0,1-6.846,2.681c-5.1,0-7.781-3.195-7.781-7.439a7.085,7.085,0,0,1,7.564-7.485c4.564,0,7.268,3.023,7.268,7.348,0,.434-.091.947-.091,1.209m-3.982-2.772a2.852,2.852,0,0,0-3.195-2.67,2.944,2.944,0,0,0-3.195,2.681Z" transform="translate(0.896 -1.615)"/><path class="a" d="M20.24,21.225V6.872H24.3V8.515A5.7,5.7,0,0,1,28.626,6.53c3.286,0,4.838,2.282,4.838,5.191v9.515H29.4V12.68c0-1.209-.434-2.419-2.282-2.419a2.613,2.613,0,0,0-2.772,2.852v8.135Z" transform="translate(2.853 -1.613)"/><path class="a" d="M44.922,2.288V9.134a5.853,5.853,0,0,1,4.415-1.985c3.97-.011,6.515,3.183,6.515,7.37s-2.51,7.439-6.492,7.439a5.568,5.568,0,0,1-4.415-1.985v1.643H40.86V2.22Zm3.286,16.258c2.168,0,3.195-1.734,3.195-3.891s-1.038-3.982-3.195-3.982-3.423,1.814-3.423,3.982,1.209,3.891,3.423,3.891" transform="translate(5.759 -2.22)"/><path class="a" d="M73.1,21.484a8.363,8.363,0,0,1-7.61-3.891l2.944-1.734a6.275,6.275,0,0,0,4.838,2.51c1.472,0,2.282-.434,2.282-1.209,0-1.038-1.3-1.209-3.023-1.472-3.423-.434-5.876-1.472-5.876-4.564S69.426,6.56,72.712,6.56a9.481,9.481,0,0,1,6.846,2.681l-2.944,1.734a5.842,5.842,0,0,0-3.891-1.3c-1.141,0-2.077.434-2.077,1.038,0,.947,1.381,1.038,3.195,1.3,3.423.6,5.876,1.552,5.876,4.564s-2.681,4.929-6.663,4.929" transform="translate(9.23 -1.609)"/><path class="a" d="M41.12,17.056a3.64,3.64,0,0,1-2.59,1.3,1.323,1.323,0,0,1-1.472-1.472V10.393H41.12V7.278H37.058V3.65H32.905V7.369H31a5.556,5.556,0,0,1,1.734,3.115,6.515,6.515,0,0,1,.171,1.814v4.666a5.032,5.032,0,0,0,.867,3.195,4.689,4.689,0,0,0,4.073,1.825,6.378,6.378,0,0,0,3.274-.821Z" transform="translate(4.369 -2.018)"/><path class="a" d="M59.352,3.65V10.5h0v6.4a5.294,5.294,0,0,0,.867,3.286A4.689,4.689,0,0,0,64.28,22a7.051,7.051,0,0,0,3.423-.867,8.991,8.991,0,0,1-2.282-2.51l-.091-.171h-.342a1.323,1.323,0,0,1-1.472-1.472V10.484h3.195c0-.091.091-.262.091-.342s0-.091.091-.171.046-.217.046-.354.091-.091.091-.171.091-.171.171-.342a.08.08,0,0,1,.091-.091,4.906,4.906,0,0,1,1.552-1.734H63.676V3.65Z" transform="translate(8.363 -2.018)"/><path class="a" d="M56.865,6.83H54.88V21.183h4.062V6.83Z" transform="translate(7.735 -1.57)"/><rect class="a" width="4.062" height="3.115" transform="translate(62.615 0.068)"/></svg>